<svg id="Layer_1" data-name="Layer 1" xmlns="http://www.w3.org/2000/svg" viewBox="0 0 618.66 287.51"><defs><style>.cls-1{fill:#00af9e;}</style></defs><path class="cls-1" d="M326.21,198.21c-23.8.77-42.95,12-55.85,32.28-12,18.84-26.63,34.55-47.06,44.36a109.68,109.68,0,0,1-47.62,11.33c-50.45.18-47.67.1-98.12.06-12.71,0-16.68-5.45-13.13-17.66,3.43-11.84,13-18.67,26.93-18.7,45.3-.09,37.37-.19,82.67,0,26.46.13,46.9-11,60.89-32.9,13-20.32,29.22-36.45,51.47-46.06a104.87,104.87,0,0,1,41.18-9c62.29-.29,57.05-.16,119.35-.1,16,0,24.28,11,19.34,25.31-2.59,7.49-8.6,11.09-19.18,11.11C415.68,198.37,357.58,197.21,326.21,198.21Z"/><path class="cls-1" d="M576.87,68.62c7.33,11.83,18.18,16.39,30.06,13.1,12.26-3.4,14.8-9.63,8.13-20.45l-8.23-13c-12-18.85-20.73-27-41.16-36.8A109.86,109.86,0,0,0,518.05.11C467.6-.07,470.38,0,419.93.05c-12.71,0-16.68,5.45-13.13,17.66,3.43,11.84,13,18.67,26.93,18.7,45.3.09,37.37.19,82.67,0,26.46-.13,46.9,11.05,60.89,32.9"/><path class="cls-1" d="M287.59,147c-13,4.37-23.4,9.36-32.62,16.48-3.38,2.61-5.33,1.82-7.48-1.23-4-5.66-8.44-11-12.17-16.87q-22-34.32-62.56-34.54c-45.28-.17-37.33,0-82.62-.08-15.56,0-26-9-27.78-23.32-1.09-9,2.85-14,11.89-14,53.78-.07,54.34-.93,108.08.42,35.66.9,63.78,18.28,83.88,47.78C272.27,130.56,278,139.56,287.59,147Z"/><path class="cls-1" d="M0,179.37q0-46.32,0-92.64c0-13,5.7-17.16,18.05-13.38,11.49,3.52,19.28,13.7,19.32,26.85q.27,79.14,0,158.26c0,14.11-8.68,24.57-21.5,27.52C5.38,288.4.07,284.36,0,273.55,0,242.16,0,210.76,0,179.37Z"/><path class="cls-1" d="M493.36,179.37q0-46.32,0-92.64c0-13,5.7-17.16,18.05-13.38,11.49,3.52,19.28,13.7,19.32,26.85q.28,79.14,0,158.26c-.05,14.11-8.67,24.57-21.5,27.52-10.51,2.42-15.82-1.62-15.85-12.43C493.31,242.16,493.36,210.76,493.36,179.37Z"/><path class="cls-1" d="M433.22,250.69H406.11v0l-35.66,0H368l-11.26,0c-13.91,0-23.49,7.26-26.93,19.1-3.54,12.22.42,17.65,13.14,17.66l24.9,0h65.4a18.41,18.41,0,0,0,0-36.82Z"/></svg>